<svg version="1.1" xmlns="http://www.w3.org/2000/svg" xmlns:xlink="http://www.w3.org/1999/xlink" preserveAspectRatio="xMidYMid meet" viewBox="614 225 595 595">
    <symbol id="logo"><g data-item-type="shape" data-item="Shape" data-logo-item="" id="logo__item--shape_1" class="logo__item">
    <g class="logo__item__inner" transform="translate(601.3000030517578 152.8499984741211) scale(7.240786098919874 7.240786098919874) rotate(0 0 0)">
        
<g>
	<path fill="#269bda" d="M83.7,91.8H2.3V10.5h81.3V91.8z M5.4,88.8h75.3V13.6H5.4V88.8z" data-part-id="logo__item--shape_1__0"></path>
</g>

    </g>
</g><g data-item-type="text" data-item="Business" id="logo__item--business" class="logo__item">
    <g class="logo__item__inner" transform="translate(635 622.5) scale(12.301430724078987 12.301430724078987) rotate(0 0 0)">
        <text dy="0" dominant-baseline="auto" alignment-baseline="auto" font-family="Montserrat" font-weight="bold" font-style="normal" font-size="32px" fill="#269bda" letter-spacing="0" data-part-id="logo__item--business" data-font-family="Montserrat" data-font-weight="bold" data-font-style="normal" data-ttf-url="/builder_assets/fontsttf/font-montserrat-bold-normal.ttf" data-font-filename="montserrat-bold-normal">EC</text>
    </g>
</g><g data-item-type="shape" data-item="Shape" data-logo-item="" id="logo__item--shape_2" class="logo__item">
    <g class="logo__item__inner" transform="translate(616.1000022888184 286.45000076293945) scale(1.1204577363018473 1.1204577363018473) rotate(-37.71912788011299 52.91904073034211 48.235770816763015)">
        
<g>
	<path fill="#dd4b39" d="M92.3,35.4c-2,0-3.6,1.7-3.6,3.7c0,1,0.4,2,1.1,2.7c-4,4-11.5,11.1-14.5,9.7c-2.7-1.2-3.3-6.5-3.4-10.3   c0,0,0,0,0.1,0c2,0,3.6-1.7,3.6-3.7c0-2.1-1.6-3.7-3.6-3.7c-2,0-3.6,1.7-3.6,3.7c0,1.6,1,3,2.4,3.5c-1.6,3.7-5,8.7-11.2,5.9   c-4.8-2.1-6.9-11.2-7.9-17.7c1.7-0.3,2.9-1.9,2.9-3.7c0-2.1-1.6-3.7-3.6-3.7c-2,0-3.6,1.7-3.6,3.7c0,1.8,1.3,3.4,2.9,3.7   c-0.9,6.5-3.1,15.5-7.8,17.7c-6.2,2.8-9.6-2.2-11.2-5.9c1.4-0.5,2.4-1.9,2.4-3.5c0-2.1-1.6-3.7-3.6-3.7s-3.6,1.7-3.6,3.7   c0,2.1,1.6,3.7,3.6,3.7c0,0,0,0,0,0c-0.1,3.7-0.7,9.1-3.4,10.3c-3,1.3-10.5-5.7-14.5-9.7c0.7-0.7,1.1-1.6,1.1-2.7   c0-2.1-1.6-3.7-3.6-3.7c-2,0-3.6,1.7-3.6,3.7c0,2.1,1.6,3.7,3.6,3.7c0.6,0,1.1-0.1,1.6-0.4c3.2,7.2,10.4,23.9,9.7,30.6   c0,0-1.8,2.1,0,3.5c1.8,1.4,30,1,30,1s28.2,0.3,30-1c1.8-1.4,0-3.5,0-3.5c-0.7-6.8,6.5-23.5,9.7-30.6c0.5,0.2,1,0.4,1.6,0.4   c2,0,3.6-1.7,3.6-3.7C95.9,37.1,94.3,35.4,92.3,35.4z" data-part-id="logo__item--shape_2__0"></path>
</g>

    </g>
</g><g data-item-type="shape" data-item="Shape" data-logo-item="" id="logo__item--shape_3" class="logo__item">
    <g class="logo__item__inner" transform="translate(642.4000015258789 440.5999984741211) scale(5.46502090453683 5.46502090453683) rotate(0 0 0)">
        
<g>
	<path fill-rule="evenodd" clip-rule="evenodd" fill="#dd4b39" d="M91.5,50.6c-0.2-3.8,5.3-3.9,4.7-6.8c2.5,3.8-0.9,7.5-4.4,7.3   c-1.3,1-2.6,1.8-3.9,2.2c1,0.1,2,0.6,2.9,1.4C89.2,55.9,86,56,84.3,54c-1,0-2.1,0-3.2-0.2c0.6,0.4-2.5-0.4-4.3-0.9   c-1.2-0.3-2.3-0.7-3.5-1.1c1.3,0.8,2,2.1,2.2,3.5c-2.5,0-4.2-2.4-4.2-4.2l-0.6-0.2c-2.9-1-5.9-2.1-8.7-2.6c0.5,0.4,1,0.9,1.4,1.6   c0,0,0.1,0,0.1,0c0.3,0,0.6,0.2,0.7,0.5c1.5-0.1,3.5,1.1,4.3,3c-0.6,0.2-1.3,0.2-1.9,0c0.6,1.2,1,2.7,0.7,4.1   c-1.3-0.5-2.4-1.6-3.1-2.8c-0.2,0.6-0.5,1.2-1,1.6c-1.2-1.6-1.1-4-0.3-5.2c-0.1-0.1-0.2-0.3-0.2-0.5c0-0.2,0.1-0.5,0.3-0.6   c-1.3-2.1-4-2.3-6.2-2.1c-1.9,0.1-4.1,0.6-5.6,1.9c-0.2,0.2-0.5,0.4-0.7,0.7c0.8,1.1,1.1,2.4,0.9,3.7c-0.1,0.9-0.4,1.7-0.9,2.4   c0.8,0.9,2,1.5,3.3,1.3c1.7-0.2,3.2-1.7,3-3.5c-0.2-1.3-1.3-2.5-2.7-2.3c-0.2,0-0.5,0.1-0.7,0.2c0.3,0.2,0.6,0.5,0.6,0.9   c0,0.6-0.5,1-1,1c-0.6,0-1-0.5-1-1c0-1,1.3-1.6,2.1-1.7c1.7-0.2,3.2,1.2,3.4,2.9c0.3,2.1-1.4,3.9-3.5,4.1C52.3,58.7,51,58.1,50,57   c-0.9,1-2.3,1.7-3.8,1.5c-2.1-0.3-3.8-2-3.5-4.1c0.2-1.7,1.6-3.1,3.4-2.9c0.8,0.1,2.1,0.7,2.1,1.7c0,0.6-0.5,1-1,1   c-0.6,0-1-0.5-1-1c0-0.4,0.2-0.7,0.6-0.9c-0.2-0.1-0.4-0.2-0.7-0.2c-1.4-0.2-2.5,1-2.7,2.3c-0.2,1.8,1.3,3.3,3,3.5   c1.3,0.2,2.5-0.4,3.3-1.3c-0.5-0.7-0.8-1.5-0.9-2.4c-0.2-1.3,0.1-2.6,0.9-3.7c-0.2-0.2-0.4-0.5-0.7-0.7c-1.5-1.3-3.7-1.8-5.6-1.9   c-2.2-0.2-5,0-6.2,2.1c0.2,0.1,0.3,0.4,0.3,0.6c0,0.2-0.1,0.4-0.2,0.5c0.9,1.2,0.9,3.5-0.3,5.2c-0.5-0.4-0.8-1-1-1.6   c-0.7,1.2-1.8,2.3-3.1,2.8c-0.3-1.4,0-2.9,0.7-4.1c-0.6,0.2-1.3,0.2-1.9,0c0.7-1.9,2.8-3.1,4.3-3c0.1-0.3,0.4-0.5,0.7-0.5   c0,0,0.1,0,0.1,0c0.4-0.7,0.8-1.2,1.4-1.6c-2.9,0.6-5.8,1.6-8.7,2.6l-0.6,0.2c-0.1,1.8-1.7,4.2-4.2,4.2c0.2-1.4,1-2.7,2.2-3.5   c-1.2,0.4-2.4,0.8-3.5,1.1c-1.8,0.5-4.9,1.3-4.3,0.9c-1.1,0.1-2.1,0.2-3.2,0.2c-1.7,2-4.9,1.9-6.5,0.7c0.9-0.8,1.9-1.3,2.9-1.4   c-1.4-0.5-2.7-1.2-3.9-2.2c-3.5,0.2-6.9-3.4-4.4-7.3c-0.6,2.8,4.9,3,4.7,6.8c4.1,3.4,9,3.2,14,1.9c-0.9-0.1-1.8-0.5-2.5-1.2   c-0.1,0.1-0.3,0.1-0.4,0.1c-0.3,0-0.5-0.1-0.6-0.3c-1.9,0.7-5-0.3-6.6-2.6c0.7-0.4,1.6-0.6,2.4-0.5c-1.2-1.4-2-3.3-2-5.1   c1.8,0.3,3.5,1.4,4.8,2.7c0.1-0.9,0.4-1.7,0.9-2.3c2.1,1.9,2.7,5.1,1.7,6.9c0.2,0.1,0.3,0.3,0.3,0.6c0,0.1,0,0.3-0.1,0.4   c2,1.7,4.4,0.9,6.6,0.2c0.8-0.3,1.6-0.6,2.5-0.8c0.9-0.3,1.9-0.7,2.8-1c-1.2-0.2-2.2-0.8-2.9-1.6c2.3-1.8,5.4-1.3,6.8,0.4   c2.3-0.6,4.6-1,6.7-0.9c-0.5-0.3,1.5,0,3.1,0.4c1.3,0.3,2.5,0.8,3.5,1.7c0.2,0.2,0.4,0.4,0.7,0.6c0.2-0.2,0.4-0.5,0.7-0.6   c1-0.9,2.3-1.4,3.5-1.7c1.6-0.4,3.6-0.8,3.1-0.4c2.2-0.1,4.4,0.3,6.7,0.9c1.5-1.7,4.5-2.1,6.8-0.4c-0.7,0.8-1.8,1.4-2.9,1.6   c0.9,0.3,1.9,0.6,2.8,1c0.8,0.3,1.6,0.6,2.5,0.8c2.1,0.7,4.6,1.5,6.6-0.2c-0.1-0.1-0.1-0.2-0.1-0.4c0-0.2,0.1-0.4,0.3-0.6   c-1-1.7-0.4-5,1.7-6.9c0.5,0.7,0.8,1.5,0.9,2.3c1.3-1.4,3-2.5,4.8-2.7c0,1.9-0.9,3.7-2,5.1c0.9,0,1.7,0.1,2.4,0.5   c-1.5,2.3-4.7,3.3-6.6,2.6c-0.1,0.2-0.4,0.3-0.6,0.3c-0.1,0-0.3,0-0.4-0.1c-0.7,0.7-1.6,1.1-2.5,1.2C82.6,53.8,87.4,54.1,91.5,50.6   L91.5,50.6z M50,51c-0.6,0.9-0.8,2-0.7,3.1c0.1,0.7,0.3,1.4,0.7,1.9c0.4-0.6,0.6-1.2,0.7-1.9C50.9,53.1,50.6,52,50,51z" data-part-id="logo__item--shape_3__0"></path>
</g>

    </g>
</g></symbol></svg>